<?xml version="1.0" encoding="UTF-8"?>
<svg version="1.1" xmlns="http://www.w3.org/2000/svg" width="512" height="512">
<path d="M0 0 C17.73818234 15.73406659 33.36808711 33.49808312 44.98632812 54.26367188 C45.44007813 55.0715918 45.89382813 55.87951172 46.36132812 56.71191406 C74.61614861 107.57426995 81.47160302 166.14264949 65.86181641 222.27490234 C53.5316134 264.36813859 27.83604818 303.37570248 -7.01367188 330.26367188 C-7.56506836 330.69147949 -8.11646484 331.11928711 -8.68457031 331.56005859 C-53.70701704 366.27059012 -110.21364941 381.58497718 -166.64648438 375.00976562 C-192.08206616 371.66248438 -227.24781543 364.69817925 -247.14575195 347.41137695 C-252.04142459 345.45219103 -256.18196715 347.62569467 -261.01367188 349.26367188 C-262.36448573 349.70925378 -263.71552291 350.15415905 -265.06674194 350.59851074 C-269.03034947 351.91266409 -272.98251819 353.25883479 -276.93305016 354.61171722 C-280.48871316 355.82740999 -284.04847659 357.03087251 -287.60803699 358.23509598 C-294.21142492 360.46908302 -300.81318749 362.70752195 -307.4074707 364.96826172 C-312.01894059 366.54870118 -316.63565456 368.11285913 -321.25623512 369.6664505 C-323.00726534 370.25854494 -324.7562956 370.85659002 -326.50317955 371.4608078 C-328.94536112 372.30473487 -331.3937208 373.12767214 -333.84448242 373.94628906 C-334.55584854 374.19764114 -335.26721466 374.44899323 -336.00013733 374.70796204 C-341.07597538 376.36932465 -344.76228995 376.29815099 -350.01367188 375.26367188 C-351.95117188 374.20117188 -351.95117188 374.20117188 -353.01367188 372.26367188 C-354.36428198 365.72080682 -353.5630943 361.39822526 -351.34155273 355.1730957 C-350.89804222 353.86665855 -350.89804222 353.86665855 -350.4455719 352.53382874 C-349.80519417 350.65437423 -349.15720762 348.77749837 -348.50239372 346.90302467 C-347.46651649 343.93633836 -346.45170874 340.96316981 -345.44203186 337.98747253 C-343.29684538 331.67731735 -341.125874 325.3762057 -338.95117188 319.07617188 C-336.42721546 311.76390323 -333.91395988 304.44832089 -331.42831612 297.12293053 C-330.42782017 294.19277514 -329.40769455 291.26994359 -328.38670349 288.34687805 C-327.77562865 286.55360461 -327.16547601 284.76001657 -326.55639648 282.96606445 C-326.26711273 282.15504272 -325.97782898 281.344021 -325.67977905 280.50842285 C-324.15709994 276.00026486 -324.15709994 276.00026486 -324.78538513 271.35964966 C-325.39338707 270.32214066 -325.39338707 270.32214066 -326.01367188 269.26367188 C-326.37992676 268.52511963 -326.74618164 267.78656738 -327.12353516 267.02563477 C-327.5229834 266.27016357 -327.92243164 265.51469238 -328.33398438 264.73632812 C-355.63982344 212.26580406 -361.58131166 153.0700874 -344.11865234 96.35693359 C-328.16781231 47.06740086 -293.44245251 2.68084298 -248.01367188 -22.73632812 C-247.20575195 -23.19007812 -246.39783203 -23.64382812 -245.56542969 -24.11132812 C-167.00109761 -67.75502219 -68.37581097 -58.95838599 0 0 Z M-279.01367188 24.26367188 C-279.66722656 24.864375 -280.32078125 25.46507812 -280.99414062 26.08398438 C-286.5144845 31.30274177 -291.05037792 37.41330271 -295.63037109 43.44921875 C-296.89924419 45.11357894 -298.19167841 46.75990766 -299.48632812 48.40429688 C-319.39008412 74.68372756 -331.20834845 107.6529351 -335.01367188 140.26367188 C-335.12453125 141.18277344 -335.23539062 142.101875 -335.34960938 143.04882812 C-339.51596518 183.9804588 -330.68576136 232.66690945 -305.90307617 266.234375 C-303.48947819 271.74132708 -305.43697688 277.52317642 -307.30859375 282.91137695 C-307.67435265 284.00536804 -307.67435265 284.00536804 -308.04750061 285.12145996 C-308.84937989 287.51212205 -309.6658754 289.89751538 -310.48242188 292.28320312 C-311.04393362 293.94958724 -311.60442467 295.61631561 -312.16394043 297.28337097 C-313.63446068 301.65698643 -315.11703087 306.02641571 -316.60272217 310.39489746 C-318.98382075 317.40338393 -321.34593277 324.4182959 -323.7091217 331.43283653 C-324.53662931 333.88364326 -325.36891141 336.33278702 -326.20202637 338.7816925 C-326.70767791 340.27541543 -327.21325648 341.76916305 -327.71875 343.26293945 C-328.06940269 344.28761574 -328.06940269 344.28761574 -328.42713928 345.33299255 C-329.61789461 348.72288349 -329.61789461 348.72288349 -330.01367188 352.26367188 C-321.8257732 350.17566549 -313.83432812 347.60100917 -305.84166718 344.8721714 C-303.69792024 344.1411089 -301.55240979 343.41545764 -299.40631104 342.69132996 C-293.31334263 340.63512973 -287.22192101 338.57451202 -281.13574219 336.49829102 C-277.39136486 335.22137298 -273.64361174 333.9548362 -269.89350128 332.69486046 C-268.47450887 332.21590656 -267.05680795 331.73310749 -265.6404953 331.24628639 C-263.66095212 330.56625725 -261.6773602 329.89956598 -259.69238281 329.2355957 C-258.00674225 328.66292717 -258.00674225 328.66292717 -256.28704834 328.07868958 C-250.18835983 326.56021495 -246.00751271 326.81340604 -240.57617188 330.05688477 C-239.93679687 330.45512451 -239.29742187 330.85336426 -238.63867188 331.26367188 C-237.21672513 332.10002368 -235.79216 332.93193704 -234.36523438 333.75976562 C-233.64110352 334.18112793 -232.91697266 334.60249023 -232.17089844 335.03662109 C-188.74472829 359.73783557 -135.7554219 364.23214796 -88.01367188 351.26367188 C-54.30459105 341.85923666 -26.12333731 324.227253 -1.01367188 300.26367188 C-0.36011719 299.66296875 0.2934375 299.06226563 0.96679688 298.44335938 C6.48714075 293.22460198 11.02303417 287.11404104 15.60302734 281.078125 C16.87190044 279.41376481 18.16433466 277.76743609 19.45898438 276.12304688 C39.36487881 249.84079275 51.17564507 216.87602919 54.98632812 184.26367188 C55.0971875 183.35617187 55.20804687 182.44867188 55.32226562 181.51367188 C60.4205507 131.90873606 45.2762013 80.34227235 14.24121094 41.35498047 C9.1071095 35.06290611 3.59530567 29.13164983 -2.01367188 23.26367188 C-2.64917969 22.58691406 -3.2846875 21.91015625 -3.93945312 21.21289062 C-8.88413331 16.0793921 -14.37629551 11.6109436 -20.01367188 7.26367188 C-20.59310547 6.81362793 -21.17253906 6.36358398 -21.76953125 5.89990234 C-96.7422173 -51.59364062 -204.03053402 -45.07175154 -279.01367188 24.26367188 Z " fill="#B4B0B8" transform="translate(396.013671875,93.736328125)"/>
<path d="M0 0 C5.90540959 6.06944874 9.34550717 13.21623711 12.16015625 21.10546875 C12.49494492 22.01396072 12.82973358 22.9224527 13.17466736 23.85847473 C14.23172074 26.73506064 15.27231717 29.61727678 16.3125 32.5 C17.01259942 34.4125023 17.71376372 36.32461515 18.41601562 38.23632812 C20.08143502 42.77796221 21.72692778 47.32650186 23.36654663 51.87750244 C24.1783707 54.11507343 25.00502265 56.34633593 25.83911133 58.57568359 C26.29181396 59.79980957 26.7445166 61.02393555 27.2109375 62.28515625 C27.59685059 63.31519775 27.98276367 64.34523926 28.38037109 65.40649414 C30.71056465 73.19321337 29.90801446 80.65853697 26.58203125 88.00390625 C24.31996855 91.92437269 21.38927032 95.07851032 18.25 98.3125 C15.01971226 101.64373423 12.61999211 104.26094347 11.0625 108.6875 C11.4838474 116.8335497 17.72794795 123.55161828 22.8125 129.5625 C23.4216626 130.29194824 24.0308252 131.02139648 24.65844727 131.77294922 C30.30959557 138.48859398 36.19204676 144.96347393 42.25 151.3125 C42.88164062 151.98539063 43.51328125 152.65828125 44.1640625 153.3515625 C51.13443453 160.58621404 59.27264808 166.59711554 67.1875 172.75 C68.00275146 173.38772339 68.00275146 173.38772339 68.83447266 174.03833008 C74.34310284 178.36934962 74.34310284 178.36934962 81.09375 179.30078125 C85.95545122 178.53213728 88.45271123 175.9634016 91.75 172.5 C98.70810092 165.63251246 105.21309007 161.39880896 115.2421875 160.80859375 C124.83487435 160.90018806 133.55217516 164.97120156 142.375 168.375 C144.14256139 169.04018859 145.91078841 169.70361126 147.6796875 170.36523438 C152.02671081 171.99706084 156.36241551 173.65663109 160.69412231 175.3286438 C163.25865092 176.31583008 165.82702401 177.29242091 168.39624023 178.26733398 C170.01557948 178.88624933 171.63480661 179.50545812 173.25390625 180.125 C174.36035995 180.54284508 174.36035995 180.54284508 175.48916626 180.96913147 C184.3251561 184.37401385 190.1517795 188.67129088 194.25 197.3125 C198.0041247 206.24837427 198.01099556 219.7947684 194.8125 228.9375 C192.32090951 233.84440779 188.78818676 237.73256248 184.92919922 241.61425781 C182.84821493 243.71884151 180.80380292 245.85731883 178.75390625 247.9921875 C177.08756563 249.70471073 175.41957548 251.41563035 173.75 253.125 C172.9552124 253.94991943 172.1604248 254.77483887 171.34155273 255.62475586 C163.72730088 263.3095173 156.52638596 268.39792708 145.5 268.5625 C84.06903609 267.92722633 28.02426487 238.63382592 -14.46777344 195.82739258 C-19.94068551 190.23516865 -25.08604435 184.60841067 -29.75 178.3125 C-30.40911377 177.43537354 -30.40911377 177.43537354 -31.08154297 176.54052734 C-58.64123854 139.65465313 -82.78697425 86.63663012 -77.75 39.3125 C-76.12882721 31.61733315 -71.87345858 26.48703769 -66.42919922 21.01074219 C-64.34821493 18.90615849 -62.30380292 16.76768117 -60.25390625 14.6328125 C-58.58756563 12.92028927 -56.91957548 11.20936965 -55.25 9.5 C-54.4552124 8.67508057 -53.6604248 7.85016113 -52.84155273 7.00024414 C-38.45934838 -7.51514248 -17.85328866 -10.95542713 0 0 Z M-41.078125 21.375 C-41.55320496 21.8481665 -42.02828491 22.32133301 -42.51776123 22.80883789 C-43.51169352 23.80141956 -44.50314651 24.7964897 -45.4921875 25.79394531 C-47.0030195 27.31554101 -48.52430136 28.82610097 -50.046875 30.3359375 C-51.0162673 31.30665066 -51.98503942 32.27798365 -52.953125 33.25 C-53.82614258 34.12527344 -54.69916016 35.00054687 -55.59863281 35.90234375 C-60.33020786 41.20308238 -60.09333234 45.47263791 -59.75 52.3125 C-56.88360822 90.7396101 -43.3535744 128.11813104 -20.75 159.3125 C-20.14140137 160.15433838 -20.14140137 160.15433838 -19.52050781 161.01318359 C-13.48057917 169.28276075 -6.84145746 176.92717874 0.25 184.3125 C0.78641113 184.87614258 1.32282227 185.43978516 1.87548828 186.02050781 C39.32092056 225.1852077 91.93616316 248.59603855 146.07421875 250.7734375 C151.55613084 249.61209885 155.73720037 245.08105079 159.578125 241.25 C160.05320496 240.7768335 160.52828491 240.30366699 161.01776123 239.81616211 C162.01169352 238.82358044 163.00314651 237.8285103 163.9921875 236.83105469 C165.5030195 235.30945899 167.02430136 233.79889903 168.546875 232.2890625 C169.5162673 231.31834934 170.48503942 230.34701635 171.453125 229.375 C172.76265137 228.06208984 172.76265137 228.06208984 174.09863281 226.72265625 C178.04217156 222.30474721 178.5436098 219.27503923 178.5625 213.375 C178.58763672 211.56708984 178.58763672 211.56708984 178.61328125 209.72265625 C178.20542444 205.89406487 177.75310622 204.23032205 175.25 201.3125 C166.13458635 196.35092935 156.31721599 192.93888088 146.63305664 189.26538086 C144.41792083 188.42124816 142.20597914 187.56868584 139.99731445 186.70776367 C136.78764769 185.45686924 133.56918313 184.23169235 130.34765625 183.01171875 C129.36926285 182.62537766 128.39086945 182.23903656 127.38282776 181.84098816 C121.43039603 179.62728077 116.48438837 178.56367034 110.25 180.3125 C107.91016113 181.80626951 107.91016113 181.80626951 106.3125 183.9375 C99.11823882 191.90564585 91.40913586 197.12145993 80.5 197.6875 C67.27267312 197.25056127 58.0724302 189.29472405 48.25 181.3125 C47.63157227 180.81121582 47.01314453 180.30993164 46.37597656 179.79345703 C34.7022404 170.2442272 23.80271745 159.90322903 14.43359375 148.05859375 C12.06585005 145.0809125 9.59856939 142.20267056 7.125 139.3125 C-0.65038977 129.96265436 -7.47950474 121.13367162 -6.984375 108.43359375 C-5.80296608 97.74184305 -0.24861632 89.87367314 7.9765625 83.05078125 C11.1329174 79.24905482 11.44784755 76.19680892 11.25 71.3125 C10.25279896 67.06637962 8.72845009 63.07591635 7.1484375 59.015625 C6.71496002 57.86382751 6.28148254 56.71203003 5.83486938 55.52532959 C4.91756338 53.10141573 3.99080243 50.68106137 3.05517578 48.26416016 C1.62760175 44.569234 0.23563473 40.86229969 -1.15234375 37.15234375 C-2.04999798 34.79347621 -2.94966975 32.43537523 -3.8515625 30.078125 C-4.26636871 28.97285461 -4.68117493 27.86758423 -5.10855103 26.7288208 C-7.52993182 20.53420272 -9.5307412 15.4221294 -15.75 12.3125 C-17.99555349 12.1368862 -20.24804227 12.04513417 -22.5 12 C-23.71171875 11.96261719 -24.9234375 11.92523438 -26.171875 11.88671875 C-32.57517506 12.6486835 -36.6490205 16.95728137 -41.078125 21.375 Z " fill="#E55973" transform="translate(196.75,124.6875)"/>
</svg>
